<?xml version="1.0" encoding="UTF-8" standalone="no"?>
<!-- Creator: CorelDRAW -->

<svg
   xmlns:dc="http://purl.org/dc/elements/1.1/"
   xmlns:cc="http://creativecommons.org/ns#"
   xmlns:rdf="http://www.w3.org/1999/02/22-rdf-syntax-ns#"
   xmlns:svg="http://www.w3.org/2000/svg"
   xmlns="http://www.w3.org/2000/svg"
   xmlns:sodipodi="http://sodipodi.sourceforge.net/DTD/sodipodi-0.dtd"
   xmlns:inkscape="http://www.inkscape.org/namespaces/inkscape"
   xml:space="preserve"
   width="132.10124mm"
   height="81.395706mm"
   style="clip-rule:evenodd;fill-rule:evenodd;image-rendering:optimizeQuality;shape-rendering:geometricPrecision;text-rendering:geometricPrecision"
   viewBox="0 0 132.10124 81.395706"
   id="svg2"
   version="1.1"
   inkscape:version="0.92.3 (2405546, 2018-03-11)"
   sodipodi:docname="Heli_4.svg"><metadata
     id="metadata721"><rdf:RDF><cc:Work
         rdf:about=""><dc:format>image/svg+xml</dc:format><dc:type
           rdf:resource="http://purl.org/dc/dcmitype/StillImage" /><dc:title></dc:title></cc:Work></rdf:RDF></metadata><sodipodi:namedview
     pagecolor="#ffffff"
     bordercolor="#666666"
     borderopacity="1"
     objecttolerance="10"
     gridtolerance="10"
     guidetolerance="10"
     inkscape:pageopacity="0"
     inkscape:pageshadow="2"
     inkscape:window-width="1920"
     inkscape:window-height="1017"
     id="namedview719"
     showgrid="false"
     inkscape:zoom="0.79314174"
     inkscape:cx="729.54082"
     inkscape:cy="-82.269916"
     inkscape:current-layer="svg2"
     inkscape:snap-global="false"
     inkscape:window-x="-8"
     inkscape:window-y="-8"
     inkscape:window-maximized="1"
     fit-margin-top="0"
     fit-margin-left="0"
     fit-margin-right="0"
     fit-margin-bottom="0" /><defs
     id="defs4"><style
       type="text/css"
       id="style6"><![CDATA[
    .str10 {stroke:#1F1A17;stroke-width:0.852;stroke-linecap:round;stroke-linejoin:round}
    .str21 {stroke:#1F1A17;stroke-width:0.8612;stroke-linecap:round;stroke-linejoin:round}
    .str16 {stroke:#1F1A17;stroke-width:0.863;stroke-linecap:round;stroke-linejoin:round}
    .str9 {stroke:#1F1A17;stroke-width:0.864;stroke-linecap:round;stroke-linejoin:round}
    .str15 {stroke:#1F1A17;stroke-width:0.8643;stroke-linecap:round;stroke-linejoin:round}
    .str20 {stroke:#1F1A17;stroke-width:0.8645;stroke-linecap:round;stroke-linejoin:round}
    .str13 {stroke:#1F1A17;stroke-width:0.8648;stroke-linecap:round;stroke-linejoin:round}
    .str6 {stroke:#1F1A17;stroke-width:0.865;stroke-linecap:round;stroke-linejoin:round}
    .str14 {stroke:#1F1A17;stroke-width:0.8659;stroke-linecap:round;stroke-linejoin:round}
    .str3 {stroke:#1F1A17;stroke-width:0.866;stroke-linecap:round;stroke-linejoin:round}
    .str7 {stroke:#1F1A17;stroke-width:0.8664;stroke-linecap:round;stroke-linejoin:round}
    .str8 {stroke:#1F1A17;stroke-width:0.8666;stroke-linecap:round;stroke-linejoin:round}
    .str18 {stroke:#1F1A17;stroke-width:0.8668;stroke-linecap:round;stroke-linejoin:round}
    .str4 {stroke:#1F1A17;stroke-width:0.8671;stroke-linecap:round;stroke-linejoin:round}
    .str2 {stroke:#1F1A17;stroke-width:0.8673;stroke-linecap:round;stroke-linejoin:round}
    .str5 {stroke:#1F1A17;stroke-width:0.8676;stroke-linecap:round;stroke-linejoin:round}
    .str17 {stroke:#1F1A17;stroke-width:0.8679;stroke-linecap:round;stroke-linejoin:round}
    .str19 {stroke:#1F1A17;stroke-width:0.8846;stroke-linecap:round;stroke-linejoin:round}
    .str0 {stroke:#1F1A17;stroke-width:2.8662;stroke-linecap:round;stroke-linejoin:round}
    .str1 {stroke:#1F1A17;stroke-width:2.8822;stroke-linecap:round;stroke-linejoin:round}
    .str11 {stroke:#1F1A17;stroke-width:2.8881;stroke-linecap:round;stroke-linejoin:round}
    .str12 {stroke:#1F1A17;stroke-width:2.8892;stroke-linecap:round;stroke-linejoin:round}
    .fil1 {fill:none}
    .fil12 {fill:#0093DD}
    .fil5 {fill:#383431}
    .fil8 {fill:#4D4948}
    .fil13 {fill:#6D609E}
    .fil15 {fill:#75C5F0}
    .fil14 {fill:#8E84B7}
    .fil2 {fill:#AAA9A9}
    .fil7 {fill:#B6DDC7}
    .fil11 {fill:#C2C1C1}
    .fil3 {fill:#DA251D}
    .fil4 {fill:#E77817}
    .fil9 {fill:#DAE8E1}
    .fil10 {fill:#E26C61}
    .fil6 {fill:#E99F5C}
    .fil0 {fill:#1F1A17;fill-rule:nonzero}
   ]]></style></defs><g
     id="g5331"
     transform="translate(-2.1304228,-9.8690348)"><g
       style="fill:none;stroke:#535d6c;stroke-linejoin:bevel"
       id="g3879"><g
         id="g3376"
         style="fill:none;stroke:#535d6c;stroke-width:2.64583325;stroke-linejoin:bevel;stroke-miterlimit:4;stroke-dasharray:none"
         transform="translate(-80.318863,-39.730367)"><ellipse
           style="opacity:1;fill:none;fill-opacity:1;stroke:#535d6c;stroke-width:2.64583325;stroke-linejoin:bevel;stroke-miterlimit:4;stroke-dasharray:none;stroke-opacity:1"
           id="ellipse3362"
           ry="8.2294254"
           rx="50.482681"
           cy="64.470703"
           cx="139.53996" /><path
           style="opacity:1;fill:none;fill-opacity:1;stroke:#535d6c;stroke-width:2.64583325;stroke-linejoin:bevel;stroke-miterlimit:4;stroke-dasharray:none;stroke-opacity:1"
           d="m 139.54007,56.241328 c -8.8467,0.0036 -17.53228,0.386106 -25.18657,1.109211 l 22.61722,6.362885 -0.37672,0.692955 -41.030054,4.085341 c 4.33284,1.25851 10.619714,2.309147 18.229894,3.046512 l 23.77995,-6.50968 4.42298,-0.353516 41.29154,3.888675 c 4.32245,-1.225774 6.6347,-2.612414 6.7138,-4.026221 l -45.94345,-0.228841 -4.4925,-0.794395 0.0463,-7.272525 z"
           id="path3364"
           inkscape:connector-curvature="0"
           sodipodi:nodetypes="cccccccccccccc" /><ellipse
           ry="1.4893448"
           rx="4.5808139"
           cy="64.3144"
           cx="139.57326"
           id="ellipse3366"
           style="opacity:1;fill:none;fill-opacity:1;stroke:#535d6c;stroke-width:2.64583325;stroke-linejoin:bevel;stroke-miterlimit:4;stroke-dasharray:none;stroke-opacity:1" /><path
           sodipodi:nodetypes="cccccccccccccc"
           inkscape:connector-curvature="0"
           id="path3368"
           d="m 139.54007,56.241328 c -8.8467,0.0036 -17.53228,0.386106 -25.18657,1.109211 l 22.61722,6.362885 -0.37672,0.692955 -41.030054,4.085341 c 4.33284,1.25851 10.619714,2.309147 18.229894,3.046512 l 23.77995,-6.50968 4.42298,-0.353516 41.29154,3.888675 c 4.32245,-1.225774 6.6347,-2.612414 6.7138,-4.026221 l -45.94345,-0.228841 -4.4925,-0.794395 0.0463,-7.272525 z"
           style="opacity:1;fill:none;fill-opacity:1;stroke:#535d6c;stroke-width:2.64583325;stroke-linejoin:bevel;stroke-miterlimit:4;stroke-dasharray:none;stroke-opacity:1" /><g
           style="fill:none;stroke:#535d6c;stroke-width:2.99915338;stroke-linejoin:bevel;stroke-miterlimit:4;stroke-dasharray:none"
           id="g3374"
           transform="matrix(1,0,0,0.77826517,0,117.2534)"><ellipse
             ry="1.9136727"
             rx="4.5808139"
             cy="-68.021805"
             cx="139.57326"
             id="ellipse3370"
             style="opacity:1;fill:none;fill-opacity:1;stroke:#535d6c;stroke-width:2.99915338;stroke-linejoin:bevel;stroke-miterlimit:4;stroke-dasharray:none;stroke-opacity:1" /><ellipse
             style="opacity:1;fill:none;fill-opacity:1;stroke:#535d6c;stroke-width:2.99957776;stroke-linejoin:bevel;stroke-miterlimit:4;stroke-dasharray:none;stroke-opacity:1"
             id="ellipse3372"
             cx="106.9011"
             cy="-113.7058"
             rx="1.5829649"
             ry="0.73624551"
             transform="matrix(0.93832071,0.34576618,-0.36798455,0.9298319,0,0)" /></g></g><g
         style="fill:none;stroke:#535d6c;stroke-linejoin:bevel"
         id="g3854"><g
           style="fill:none;stroke:#535d6c;stroke-width:2.64583325;stroke-linejoin:bevel;stroke-miterlimit:4;stroke-dasharray:none"
           transform="translate(-80.318863,-82.063701)"
           id="g3360"><circle
             class="fil1 str7"
             transform="rotate(-4.921754)"
             r="10.894586"
             id="circle2622"
             cx="185.97705"
             cy="137.02631"
             style="opacity:1;fill:none;fill-opacity:0.50196078;stroke:#535d6c;stroke-width:2.64583325;stroke-linecap:round;stroke-linejoin:bevel;stroke-miterlimit:4;stroke-dasharray:none" /><circle
             class="fil13 str19"
             transform="rotate(-4.9217604)"
             r="2.1976981"
             id="circle2810"
             cx="185.97713"
             cy="137.02634"
             style="fill:none;stroke:#535d6c;stroke-width:2.64583325;stroke-linecap:round;stroke-linejoin:bevel;stroke-miterlimit:4;stroke-dasharray:none" /><g
             id="g2931"
             transform="translate(0,105.83334)"
             style="fill:none;stroke:#535d6c;stroke-width:2.64583325;stroke-linejoin:bevel;stroke-miterlimit:4;stroke-dasharray:none"><path
               class="fil2 str8"
               d="m 197.04744,14.731798 -4.6178,9.868399 c -1.7302,-0.81 -3.2209,-2.0645 -4.3151,-3.631698 z"
               id="path2925"
               inkscape:connector-curvature="0"
               style="fill:none;fill-opacity:1;stroke:#535d6c;stroke-width:2.64583325;stroke-linecap:round;stroke-linejoin:bevel;stroke-miterlimit:4;stroke-dasharray:none" /><path
               class="fil2 str7"
               d="m 197.04744,14.731798 -6.2374,-8.9332979 c 1.5665,-1.0934 3.3984,-1.7571 5.3027,-1.9211 z"
               id="path2927"
               inkscape:connector-curvature="0"
               style="fill:none;fill-opacity:1;stroke:#535d6c;stroke-width:2.64583325;stroke-linecap:round;stroke-linejoin:bevel;stroke-miterlimit:4;stroke-dasharray:none" /><path
               class="fil2 str18"
               d="m 197.04744,14.731798 10.8551,-0.9351 c 0.1637,1.903401 -0.1775,3.8217 -0.9876,5.5528 z"
               id="path2929"
               inkscape:connector-curvature="0"
               style="fill:none;fill-opacity:1;stroke:#535d6c;stroke-width:2.64583325;stroke-linecap:round;stroke-linejoin:bevel;stroke-miterlimit:4;stroke-dasharray:none" /></g><g
             style="fill:none;stroke:#535d6c;stroke-width:2.64583325;stroke-linejoin:bevel;stroke-miterlimit:4;stroke-dasharray:none"
             id="g2923"
             transform="translate(0,105.83334)"><path
               style="fill:none;fill-opacity:1;stroke:#535d6c;stroke-width:2.64583325;stroke-linecap:round;stroke-linejoin:bevel;stroke-miterlimit:4;stroke-dasharray:none"
               inkscape:connector-curvature="0"
               id="path2804"
               d="m 197.04744,14.731798 -4.6178,9.868399 c -1.7302,-0.81 -3.2209,-2.0645 -4.3151,-3.631698 z"
               class="fil2 str8" /><path
               style="fill:none;fill-opacity:1;stroke:#535d6c;stroke-width:2.64583325;stroke-linecap:round;stroke-linejoin:bevel;stroke-miterlimit:4;stroke-dasharray:none"
               inkscape:connector-curvature="0"
               id="path2806"
               d="m 197.04744,14.731798 -6.2374,-8.9332979 c 1.5665,-1.0934 3.3984,-1.7571 5.3027,-1.9211 z"
               class="fil2 str7" /><path
               style="fill:none;fill-opacity:1;stroke:#535d6c;stroke-width:2.64583325;stroke-linecap:round;stroke-linejoin:bevel;stroke-miterlimit:4;stroke-dasharray:none"
               inkscape:connector-curvature="0"
               id="path2808"
               d="m 197.04744,14.731798 10.8551,-0.9351 c 0.1637,1.903401 -0.1775,3.8217 -0.9876,5.5528 z"
               class="fil2 str18" /></g><circle
             style="fill:none;stroke:#535d6c;stroke-width:2.64583325;stroke-linecap:round;stroke-linejoin:bevel;stroke-miterlimit:4;stroke-dasharray:none"
             cy="137.02634"
             cx="185.97713"
             id="circle2933"
             r="2.1976981"
             transform="rotate(-4.9217604)"
             class="fil13 str19" /><path
             class="fil14"
             d="m 196.73644,118.87414 c 0.2578,-0.4144 0.9224,-0.4669 1.4842,-0.1174 0.5617,0.3496 0.8081,0.9691 0.5503,1.3834 -0.2578,0.4143 -0.9225,0.4669 -1.4842,0.1173 -0.5617,-0.3495 -0.8082,-0.969 -0.5503,-1.3833 z"
             id="path2935"
             inkscape:connector-curvature="0"
             style="fill:none;stroke:#535d6c;stroke-width:2.64583325;stroke-linejoin:bevel;stroke-miterlimit:4;stroke-dasharray:none" /></g><path
           inkscape:connector-curvature="0"
           id="polygon3181"
           d="m 61.330367,24.552495 -3.8101,0.28474 1.15807,13.507694 c -0.26974,0.0573 -0.53167,0.12018 -0.79013,0.18552 a 20.185968,20.185968 0 0 0 -15.34739,-5.235857 20.185968,20.185968 0 0 0 -18.37975,21.843621 20.185968,20.185968 0 0 0 12.61576,16.98656 l -0.86919,2.9962 a 4.7844228,4.7844228 0 0 0 -1.17358,-0.0496 4.7844228,4.7844228 0 0 0 -4.35632,5.17746 4.7844228,4.7844228 0 0 0 5.17746,4.35633 4.7844228,4.7844228 0 0 0 4.35633,-5.17746 4.7844228,4.7844228 0 0 0 -1.38855,-2.97036 l 1.64796,-3.2949 a 20.185968,20.185968 0 0 0 5.83375,0.35502 20.185968,20.185968 0 0 0 4.25608,-0.85989 4.7844228,4.7844228 0 0 0 -0.81701,3.1042 4.7844228,4.7844228 0 0 0 5.17746,4.35632 4.7844228,4.7844228 0 0 0 4.35633,-5.17746 4.7844228,4.7844228 0 0 0 -2.512,-3.80442 l 0.6811,-2.21227 a 20.185968,20.185968 0 0 0 0.72295,-0.61753 l 4.223,6.82026 a 4.7844228,4.7844228 0 0 0 -0.99374,3.34294 4.7844228,4.7844228 0 0 0 5.17747,4.35633 4.7844228,4.7844228 0 0 0 4.35632,-5.17695 4.7844228,4.7844228 0 0 0 -5.17746,-4.35632 4.7844228,4.7844228 0 0 0 -1.20975,0.26717 l -2.91558,-7.44968 55.961953,-24.083277 -0.0351,-1.93787 -0.0351,-1.937857 -39.493723,9.391664 c 0.95727,-0.74541 1.47716,-1.57149 1.4056,-2.40244 -0.10937,-1.270077 -1.58314,-2.290257 -3.82612,-2.891287 -0.7082,-0.21341 -1.5035,-0.37706 -2.35335,-0.46664 -0.36573,-0.0385 -0.72415,-0.061 -1.07228,-0.0703 0.0628,-0.21238 0.0877,-0.42678 0.0692,-0.64131 -0.18108,-2.102927 -4.34873,-3.480117 -9.47952,-3.214787 z m 2.89233,25.797378 c 0.42163,0.0426 0.8524,0.0764 1.29915,0.0951 l -1.25109,0.29765 a 20.185968,20.185968 0 0 0 -0.0481,-0.39274 z"
           style="fill:none;stroke:#535d6c;stroke-width:2.64583325;stroke-linejoin:bevel;stroke-miterlimit:4;stroke-dasharray:none" /></g></g></g><g
     transform="translate(-145.00552,-9.8690901)"
     id="g5859"><g
       transform="translate(-9.7492243,78.301463)"
       id="g5813"><g
         id="g5757"
         transform="translate(0,-23.812499)"><polygon
           style="fill:#6d609e;stroke:#000000;stroke-width:0.26458332;stroke-miterlimit:4;stroke-dasharray:none"
           id="polygon5749"
           points="188.989,158.574 187.106,157.837 190.776,145.188 194.881,146.795 "
           class="fil13"
           transform="translate(0,-132.29169)" /><circle
           class="fil5 str13"
           transform="rotate(-4.9217759)"
           r="4.7844229"
           id="circle5751"
           cx="184.90172"
           cy="41.365608"
           style="fill:#383431;stroke:#000000;stroke-width:0.26458332;stroke-linecap:round;stroke-linejoin:round;stroke-miterlimit:4;stroke-dasharray:none" /><circle
           class="fil2 str5"
           transform="rotate(-4.9217653)"
           r="2.4107926"
           id="circle5753"
           cx="184.06354"
           cy="40.527565"
           style="fill:#aaa9a9;stroke:#000000;stroke-width:0.26458332;stroke-linecap:round;stroke-linejoin:round;stroke-miterlimit:4;stroke-dasharray:none" /><path
           style="fill:#4d4948;stroke:#000000;stroke-width:0.26458332;stroke-miterlimit:4;stroke-dasharray:none"
           inkscape:connector-curvature="0"
           id="path5755"
           d="m 189.541,21.362326 c 0.4081,-0.3041 1.2324,0.1112 1.8406,0.9274 0.6083,0.8162 0.7707,1.7247 0.3626,2.0289 -0.4082,0.3041 -1.2324,-0.1111 -1.8407,-0.9273 -0.6083,-0.8162 -0.7706,-1.7248 -0.3625,-2.029 z"
           class="fil8" /></g><g
         id="g5765"
         transform="translate(0,-23.812499)"><circle
           class="fil5 str13"
           transform="rotate(-4.9217759)"
           r="4.7844229"
           id="circle5759"
           cx="204.28238"
           cy="38.53093"
           style="fill:#383431;stroke:#000000;stroke-width:0.26458332;stroke-linecap:round;stroke-linejoin:round;stroke-miterlimit:4;stroke-dasharray:none" /><polygon
           style="fill:#6d609e;stroke:#000000;stroke-width:0.26458332;stroke-miterlimit:4;stroke-dasharray:none"
           id="polygon5761"
           points="207.768,153.233 205.789,152.815 207.329,139.735 211.643,140.645 "
           class="fil13"
           transform="translate(0,-132.29169)" /><circle
           class="fil2 str17"
           transform="rotate(-4.9217884)"
           r="1.5940845"
           id="circle5763"
           cx="204.23688"
           cy="38.396561"
           style="fill:#aaa9a9;stroke:#000000;stroke-width:0.26458332;stroke-linecap:round;stroke-linejoin:round;stroke-miterlimit:4;stroke-dasharray:none" /></g><g
         id="g5771"
         transform="translate(0,-46.037501)"><polygon
           class="fil13 str20"
           points="269.846,117.012 215.292,130.127 208.777,147.199 269.916,120.888 "
           id="polygon5767"
           style="fill:#6d609e;stroke:#1f1a17;stroke-width:0.26458332;stroke-linecap:round;stroke-linejoin:round;stroke-miterlimit:4;stroke-dasharray:none"
           transform="translate(0,-111.12501)" /><polygon
           style="fill:#ffffff;fill-opacity:0.49019608;stroke:#000000;stroke-width:0.26458332;stroke-miterlimit:4;stroke-dasharray:none"
           id="polygon5769"
           points="213.991,136.923 269.881,118.95 269.846,117.012 214.916,130.074 "
           class="fil14"
           transform="translate(0,-111.12501)" /></g><path
         class="fil12"
         d="m 214.237,-40.389013 c 5.5176,-0.4752 10.1472,0.9392 10.3383,3.158501 0.1911,2.219202 -4.1286,4.404203 -9.6462,4.879403 -5.5176,0.4751 -10.1472,-0.9393 -10.3383,-3.158502 -0.1911,-2.219201 4.1286,-4.404302 9.6462,-4.879402 z"
         id="path5773"
         inkscape:connector-curvature="0"
         style="fill:#0093dd;stroke:#000000;stroke-width:0.26458332;stroke-miterlimit:4;stroke-dasharray:none" /><g
         id="g5779"
         transform="translate(-1.0583333,-52.916669)"><path
           sodipodi:nodetypes="ccccc"
           inkscape:connector-curvature="0"
           id="path5775"
           d="m 211.20261,-0.54740568 3.81027,-0.2848796 2.31464,26.99234028 -3.81027,0.284879 z"
           style="opacity:1;fill:#6d609e;fill-opacity:1;stroke:#000000;stroke-width:0.26458332;stroke-miterlimit:4;stroke-dasharray:none;stroke-opacity:1" /><path
           style="opacity:1;fill:#ffffff;fill-opacity:0.49019608;stroke:#000000;stroke-width:0.26458332;stroke-miterlimit:4;stroke-dasharray:none;stroke-opacity:1"
           d="m 213.41043,-0.68984547 1.60245,-0.14243981 2.31464,26.99234028 -1.60245,0.142439 z"
           id="path5777"
           inkscape:connector-curvature="0"
           sodipodi:nodetypes="ccccc" /></g><g
         id="g5791"
         transform="translate(0,-23.812499)"><polygon
           style="fill:#6d609e;stroke:#000000;stroke-width:0.26458332;stroke-miterlimit:4;stroke-dasharray:none"
           id="polygon5781"
           points="218.163,154.668 216.354,155.573 209.42,144.375 213.363,142.403 "
           class="fil13"
           transform="translate(0,-132.29169)" /><polygon
           style="fill:#ffffff;fill-opacity:0.49019608;stroke:#000000;stroke-width:0.26458332;stroke-miterlimit:4;stroke-dasharray:none"
           id="polygon5783"
           points="218.163,154.668 217.258,155.12 211.393,144.205 213.362,142.403 "
           class="fil14"
           transform="translate(0,-132.29169)" /><circle
           class="fil5 str6"
           transform="rotate(-4.9217759)"
           r="4.7844229"
           id="circle5785"
           cx="215.66208"
           cy="42.228889"
           style="fill:#383431;stroke:#000000;stroke-width:0.26458332;stroke-linecap:round;stroke-linejoin:round;stroke-miterlimit:4;stroke-dasharray:none" /><circle
           class="fil2 str16"
           transform="rotate(-4.9217653)"
           r="2.4107926"
           id="circle5787"
           cx="214.8239"
           cy="41.390846"
           style="fill:#aaa9a9;stroke:#000000;stroke-width:0.26458332;stroke-linecap:round;stroke-linejoin:round;stroke-miterlimit:4;stroke-dasharray:none" /><path
           style="fill:#4d4948;stroke:#000000;stroke-width:0.26458332;stroke-miterlimit:4;stroke-dasharray:none"
           inkscape:connector-curvature="0"
           id="path5789"
           d="m 220.381,19.793326 c 0.4081,-0.3042 1.2323,0.1111 1.8406,0.9273 0.6083,0.8162 0.7706,1.7248 0.3625,2.0289 -0.4081,0.3042 -1.2323,-0.1111 -1.8406,-0.9273 -0.6083,-0.8162 -0.7706,-1.7248 -0.3625,-2.0289 z"
           class="fil8" /></g><circle
         style="fill:#6d609e;stroke:#1f1a17;stroke-width:0.26458332;stroke-linecap:round;stroke-linejoin:round;stroke-miterlimit:4;stroke-dasharray:none"
         cy="-7.910666"
         cx="198.30682"
         id="circle5793"
         r="20.185968"
         transform="rotate(-4.9217721)"
         class="fil13 str15" /><path
         class="fil14"
         d="m 198.47988,-42.142339 c 4.1688,-2.837701 10.891,-0.2301 15.0113,5.823 4.1203,6.0531 4.0809,13.263199 -0.0878,16.100899 -4.1688,2.837599 -10.891,0.23 -15.0113,-5.823099 -4.1203,-6.0531 -4.0809,-13.2632 0.0878,-16.1008 z"
         id="path5795"
         inkscape:connector-curvature="0"
         style="fill:#ffffff;fill-opacity:0.49019608;stroke:#000000;stroke-width:0.26458332;stroke-miterlimit:4;stroke-dasharray:none" /><g
         id="g5797"
         transform="translate(0,-15.875)" /><path
         class="fil12"
         d="m 220.679,-36.546011 c 5.9128,-0.509201 10.874,1.0065 11.0788,3.384702 0.2048,2.378201 -4.4242,4.719801 -10.3371,5.228901 -5.9128,0.5092 -10.874,-1.0065 -11.0788,-3.3847 -0.2048,-2.378201 4.4243,-4.719703 10.3371,-5.228903 z"
         id="path5799"
         inkscape:connector-curvature="0"
         style="fill:#0093dd;stroke:#000000;stroke-width:0.26458332;stroke-miterlimit:4;stroke-dasharray:none" /><path
         class="fil15"
         d="m 225.578,-36.519011 c 3.053,0.3218 5.4476,1.576601 5.3472,2.802102 -0.1004,1.2254 -2.6578,1.9582 -5.7108,1.6364 -3.0531,-0.3218 -5.4476,-1.5766 -5.3472,-2.802101 0.1004,-1.225401 2.6577,-1.958201 5.7108,-1.636401 z"
         id="path5801"
         inkscape:connector-curvature="0"
         style="fill:#ffffff;fill-opacity:0.49019608;stroke:#000000;stroke-width:0.26458332;stroke-miterlimit:4;stroke-dasharray:none" /><path
         class="fil7"
         d="m 193.62504,-42.078621 c 6.9378,1.5914 11.2479,9.5789 9.6249,17.8368 -1.6231,8.257901 -8.5657,13.664301 -15.5035,12.072901 -6.9379,-1.5914 -11.248,-9.578901 -9.6249,-17.836801 1.623,-8.258 8.5656,-13.6643 15.5035,-12.0729 z"
         id="path5803"
         inkscape:connector-curvature="0"
         style="fill:#b6ddc7;stroke:#000000;stroke-width:0.26458332;stroke-miterlimit:4;stroke-dasharray:none" /><path
         class="fil9"
         d="m 191.50104,-40.651621 c 1.4414,2.4854 -0.099,7.247 -3.4397,10.6331 -3.3408,3.3861 -7.2189,4.1165 -8.6603,1.6311 -1.4414,-2.4854 0.0989,-7.247 3.4397,-10.6331 3.3407,-3.3861 7.2189,-4.1166 8.6603,-1.6311 z"
         id="path5805"
         inkscape:connector-curvature="0"
         style="fill:#ffffff;fill-opacity:0.49019608;stroke:#000000;stroke-width:0.26458332;stroke-miterlimit:4;stroke-dasharray:none" /><g
         id="g5807"
         transform="translate(-0.52916667,-37.041668)" /><g
         transform="translate(0.01596424,-78.693063)"
         id="g5809"
         style="opacity:0.5" /><g
         transform="translate(-2.3873117,-79.450078)"
         id="g5811"
         style="opacity:0.5" /></g><g
       transform="translate(62.556144,-39.730367)"
       id="g5829"><ellipse
         style="opacity:1;fill:none;fill-opacity:1;stroke:#000000;stroke-width:0.26458332;stroke-miterlimit:4;stroke-dasharray:none;stroke-opacity:1"
         id="ellipse5815"
         ry="8.2294254"
         rx="50.482681"
         cy="64.470703"
         cx="139.53996" /><path
         style="opacity:1;fill:none;fill-opacity:1;stroke:#000000;stroke-width:0.26458332;stroke-linejoin:bevel;stroke-miterlimit:4;stroke-dasharray:none;stroke-opacity:1"
         d="m 139.54007,56.241328 c -8.8467,0.0036 -17.53228,0.386106 -25.18657,1.109211 l 22.61722,6.362885 -0.37672,0.692955 -41.030054,4.085341 c 4.33284,1.25851 10.619714,2.309147 18.229894,3.046512 l 23.77995,-6.50968 4.42298,-0.353516 41.29154,3.888675 c 4.32245,-1.225774 6.6347,-2.612414 6.7138,-4.026221 l -45.94345,-0.228841 -4.4925,-0.794395 0.0463,-7.272525 z"
         id="path5817"
         inkscape:connector-curvature="0"
         sodipodi:nodetypes="cccccccccccccc" /><ellipse
         ry="1.4893448"
         rx="4.5808139"
         cy="64.3144"
         cx="139.57326"
         id="ellipse5819"
         style="opacity:1;fill:#6d609e;fill-opacity:1;stroke:#000000;stroke-width:0.26458332;stroke-miterlimit:4;stroke-dasharray:none;stroke-opacity:1" /><path
         sodipodi:nodetypes="cccccccccccccc"
         inkscape:connector-curvature="0"
         id="path5821"
         d="m 139.54007,56.241328 c -8.8467,0.0036 -17.53228,0.386106 -25.18657,1.109211 l 22.61722,6.362885 -0.37672,0.692955 -41.030054,4.085341 c 4.33284,1.25851 10.619714,2.309147 18.229894,3.046512 l 23.77995,-6.50968 4.42298,-0.353516 41.29154,3.888675 c 4.32245,-1.225774 6.6347,-2.612414 6.7138,-4.026221 l -45.94345,-0.228841 -4.4925,-0.794395 0.0463,-7.272525 z"
         style="opacity:1;fill:#808080;fill-opacity:1;stroke:#000000;stroke-width:0.26458332;stroke-miterlimit:4;stroke-dasharray:none;stroke-opacity:1" /><g
         style="stroke-width:0.29991534;stroke-miterlimit:4;stroke-dasharray:none"
         id="g5827"
         transform="matrix(1,0,0,0.77826517,0,117.2534)"><ellipse
           ry="1.9136727"
           rx="4.5808139"
           cy="-68.021805"
           cx="139.57326"
           id="ellipse5823"
           style="opacity:1;fill:#6d609e;fill-opacity:1;stroke:#000000;stroke-width:0.29991534;stroke-miterlimit:4;stroke-dasharray:none;stroke-opacity:1" /><ellipse
           style="opacity:1;fill:#ffffff;fill-opacity:0.49019608;stroke:#000000;stroke-width:0.29995778;stroke-miterlimit:4;stroke-dasharray:none;stroke-opacity:1"
           id="ellipse5825"
           cx="106.9011"
           cy="-113.7058"
           rx="1.5829649"
           ry="0.73624551"
           transform="matrix(0.93832071,0.34576618,-0.36798455,0.9298319,0,0)" /></g></g><g
       transform="translate(62.556144,-55.605367)"
       id="g5857"><circle
         style="opacity:1;fill:none;fill-opacity:0.50196078;stroke:#000000;stroke-width:0.26458332;stroke-linecap:round;stroke-linejoin:round;stroke-miterlimit:4;stroke-dasharray:none"
         cy="110.66553"
         cx="188.24706"
         id="circle5831"
         r="10.894586"
         transform="rotate(-4.921754)"
         class="fil1 str7" /><g
         style="stroke-width:0.26458332;stroke-miterlimit:4;stroke-dasharray:none"
         transform="translate(0,42.333335)"
         id="g5855"><circle
           class="fil13 str19"
           transform="rotate(-4.9217604)"
           r="2.1976981"
           id="circle5833"
           cx="191.87914"
           cy="68.488312"
           style="fill:#6d609e;stroke:#000000;stroke-width:0.26458332;stroke-linecap:round;stroke-linejoin:round;stroke-miterlimit:4;stroke-dasharray:none" /><g
           id="g5841"
           transform="translate(0,37.041668)"
           style="stroke-width:0.26458332;stroke-miterlimit:4;stroke-dasharray:none"><path
             class="fil2 str8"
             d="m 197.04744,14.731798 -4.6178,9.868399 c -1.7302,-0.81 -3.2209,-2.0645 -4.3151,-3.631698 z"
             id="path5835"
             inkscape:connector-curvature="0"
             style="fill:#808080;fill-opacity:1;stroke:#000000;stroke-width:0.26458332;stroke-linecap:round;stroke-linejoin:round;stroke-miterlimit:4;stroke-dasharray:none" /><path
             class="fil2 str7"
             d="m 197.04744,14.731798 -6.2374,-8.9332979 c 1.5665,-1.0934 3.3984,-1.7571 5.3027,-1.9211 z"
             id="path5837"
             inkscape:connector-curvature="0"
             style="fill:#808080;fill-opacity:1;stroke:#000000;stroke-width:0.26458332;stroke-linecap:round;stroke-linejoin:round;stroke-miterlimit:4;stroke-dasharray:none" /><path
             class="fil2 str18"
             d="m 197.04744,14.731798 10.8551,-0.9351 c 0.1637,1.903401 -0.1775,3.8217 -0.9876,5.5528 z"
             id="path5839"
             inkscape:connector-curvature="0"
             style="fill:#808080;fill-opacity:1;stroke:#000000;stroke-width:0.26458332;stroke-linecap:round;stroke-linejoin:round;stroke-miterlimit:4;stroke-dasharray:none" /></g><g
           style="stroke-width:0.26458332;stroke-miterlimit:4;stroke-dasharray:none"
           id="g5849"
           transform="translate(0,37.041668)"><path
             style="fill:#808080;fill-opacity:1;stroke:#000000;stroke-width:0.26458332;stroke-linecap:round;stroke-linejoin:round;stroke-miterlimit:4;stroke-dasharray:none"
             inkscape:connector-curvature="0"
             id="path5843"
             d="m 197.04744,14.731798 -4.6178,9.868399 c -1.7302,-0.81 -3.2209,-2.0645 -4.3151,-3.631698 z"
             class="fil2 str8" /><path
             style="fill:#808080;fill-opacity:1;stroke:#000000;stroke-width:0.26458332;stroke-linecap:round;stroke-linejoin:round;stroke-miterlimit:4;stroke-dasharray:none"
             inkscape:connector-curvature="0"
             id="path5845"
             d="m 197.04744,14.731798 -6.2374,-8.9332979 c 1.5665,-1.0934 3.3984,-1.7571 5.3027,-1.9211 z"
             class="fil2 str7" /><path
             style="fill:#808080;fill-opacity:1;stroke:#000000;stroke-width:0.26458332;stroke-linecap:round;stroke-linejoin:round;stroke-miterlimit:4;stroke-dasharray:none"
             inkscape:connector-curvature="0"
             id="path5847"
             d="m 197.04744,14.731798 10.8551,-0.9351 c 0.1637,1.903401 -0.1775,3.8217 -0.9876,5.5528 z"
             class="fil2 str18" /></g><circle
           style="fill:#6d609e;stroke:#000000;stroke-width:0.26458332;stroke-linecap:round;stroke-linejoin:round;stroke-miterlimit:4;stroke-dasharray:none"
           cy="68.488312"
           cx="191.87914"
           id="circle5851"
           r="2.1976981"
           transform="rotate(-4.9217604)"
           class="fil13 str19" /><path
           class="fil14"
           d="m 196.73644,50.082467 c 0.2578,-0.4144 0.9224,-0.4669 1.4842,-0.1174 0.5617,0.3496 0.8081,0.9691 0.5503,1.3834 -0.2578,0.4143 -0.9225,0.4669 -1.4842,0.1173 -0.5617,-0.3495 -0.8082,-0.969 -0.5503,-1.3833 z"
           id="path5853"
           inkscape:connector-curvature="0"
           style="fill:#ffffff;fill-opacity:0.49019608;stroke:#000000;stroke-width:0.26458332;stroke-miterlimit:4;stroke-dasharray:none" /></g></g></g></svg>